<svg width="160" height="52" viewBox="0 0 160 52" fill="none" xmlns="http://www.w3.org/2000/svg">
<g clip-path="url(#clip0_15723_114825)">
<path d="M174.091 -15.6692H-17.0182V65.8546H174.091V-15.6692Z" stroke="white" stroke-width="1.29143" stroke-miterlimit="10"/>
<path d="M78.1843 20.0538V35.0938H76.2187V32.5078C75.3822 33.493 74.4458 34.2348 73.4049 34.733C72.364 35.2313 71.2278 35.4793 69.994 35.4793C67.8007 35.4793 65.9256 34.7082 64.3735 33.1639C62.8214 31.6195 62.0454 29.7438 62.0454 27.5321C62.0454 25.3204 62.8284 23.5145 64.3967 21.9747C65.9628 20.4371 67.8494 19.666 70.0521 19.666C71.3254 19.666 72.4755 19.9275 73.5071 20.4528C74.5388 20.9782 75.4426 21.7672 76.221 22.8156V20.0515H78.1866L78.1843 20.0538ZM70.2148 21.5328C69.1041 21.5328 68.0795 21.7965 67.1408 22.3264C66.2021 22.8562 65.4539 23.5979 64.8986 24.5561C64.3433 25.5143 64.0668 26.5265 64.0668 27.5929C64.0668 28.6593 64.3456 29.6648 64.9056 30.6298C65.4656 31.597 66.216 32.3477 67.1617 32.8866C68.105 33.4254 69.1181 33.6937 70.1985 33.6937C71.2789 33.6937 72.3245 33.4277 73.3004 32.8933C74.2785 32.359 75.029 31.6376 75.5565 30.7245C76.0839 29.8136 76.3464 28.7878 76.3464 27.6448C76.3464 25.9065 75.7563 24.4501 74.5759 23.2823C73.3956 22.1144 71.9411 21.5283 70.2148 21.5283" fill="white"/>
<path d="M80.8958 35.0939V14.2485H82.8894V22.6399C83.7235 21.6434 84.6599 20.9016 85.6938 20.4079C86.7278 19.9164 87.8617 19.6684 89.0954 19.6684C91.2865 19.6684 93.1592 20.4395 94.709 21.9838C96.2611 23.5282 97.0371 25.4017 97.0371 27.6021C97.0371 29.8025 96.2541 31.6332 94.6881 33.173C93.122 34.7129 91.24 35.4817 89.0373 35.4817C87.7757 35.4817 86.6325 35.2179 85.6079 34.6949C84.5832 34.1695 83.6771 33.3805 82.8894 32.3299V35.0939H80.8958V35.0939ZM88.8747 33.6149C89.983 33.6149 91.0077 33.3512 91.944 32.8191C92.8827 32.2893 93.6286 31.5453 94.1815 30.5871C94.7369 29.6289 95.0134 28.6144 95.0134 27.5457C95.0134 26.4771 94.7345 25.458 94.1746 24.4909C93.6146 23.5237 92.8641 22.7707 91.9208 22.2318C90.9775 21.693 89.9714 21.4224 88.9003 21.4224C87.8291 21.4224 86.7743 21.693 85.7938 22.2318C84.8132 22.7707 84.0604 23.4966 83.533 24.4097C83.0079 25.3228 82.743 26.3508 82.743 27.4916C82.743 29.2344 83.3332 30.6886 84.5135 31.8609C85.6938 33.031 87.146 33.6172 88.8701 33.6172" fill="white"/>
<path d="M107.793 21.6998L106.51 22.9849C105.443 21.9793 104.4 21.4788 103.383 21.4788C102.734 21.4788 102.179 21.6863 101.719 22.1011C101.259 22.5159 101.027 23.0007 101.027 23.553C101.027 24.0422 101.217 24.5067 101.598 24.9486C101.979 25.3995 102.778 25.9293 103.996 26.538C105.481 27.2843 106.489 28.0034 107.023 28.6956C107.546 29.3967 107.809 30.1836 107.809 31.0583C107.809 32.2938 107.36 33.3399 106.468 34.1966C105.574 35.0534 104.456 35.4817 103.115 35.4817C102.221 35.4817 101.366 35.2923 100.553 34.9158C99.7393 34.5371 99.0655 34.0163 98.5334 33.3534L99.7881 31.9714C100.806 33.0874 101.886 33.6443 103.029 33.6443C103.831 33.6443 104.509 33.3963 105.072 32.898C105.632 32.3998 105.913 31.8159 105.913 31.1418C105.913 30.5894 105.727 30.0957 105.358 29.6628C104.986 29.2389 104.147 28.7046 102.846 28.0598C101.447 27.3587 100.494 26.6688 99.9903 25.9856C99.4861 25.3048 99.2328 24.5247 99.2328 23.65C99.2328 22.5069 99.6348 21.5578 100.439 20.8025C101.243 20.0472 102.258 19.6685 103.485 19.6685C104.911 19.6685 106.347 20.3448 107.795 21.6998" fill="white"/>
<path d="M118.176 19.6685C120.565 19.6685 122.544 20.5071 124.115 22.1845C125.542 23.7153 126.255 25.5257 126.255 27.6179C126.255 29.7101 125.5 31.5543 123.992 33.1257C122.484 34.6971 120.546 35.4817 118.176 35.4817C115.806 35.4817 113.855 34.6971 112.347 33.1257C110.839 31.5543 110.084 29.7191 110.084 27.6179C110.084 25.5167 110.799 23.7289 112.223 22.198C113.794 20.5117 115.778 19.6685 118.174 19.6685M118.167 21.5623C116.508 21.5623 115.081 22.1575 113.892 23.3456C112.7 24.5337 112.105 25.9721 112.105 27.6585C112.105 28.7452 112.377 29.7597 112.921 30.6999C113.464 31.64 114.198 32.366 115.121 32.8777C116.046 33.3895 117.061 33.6443 118.167 33.6443C119.273 33.6443 120.286 33.3895 121.211 32.8777C122.135 32.366 122.87 31.64 123.411 30.6999C123.952 29.7597 124.227 28.7452 124.227 27.6585C124.227 25.9721 123.627 24.5337 122.433 23.3456C121.236 22.1575 119.814 21.5623 118.167 21.5623" fill="white"/>
<path d="M131.065 22.1282C131.027 22.1665 130.997 22.2071 130.962 22.2454V20.054H128.925V35.094H130.962V27.1062C131.004 25.5934 131.562 24.2925 132.645 23.2126C133.771 22.0876 135.119 21.5262 136.687 21.5262L136.694 19.7339C134.427 19.7339 132.549 20.532 131.067 22.1259" fill="white"/>
<path d="M139.438 35.0939V14.2485H141.432V22.6399C142.266 21.6434 143.203 20.9016 144.236 20.4079C145.27 19.9164 146.407 19.6684 147.638 19.6684C149.829 19.6684 151.702 20.4395 153.254 21.9838C154.806 23.5282 155.582 25.4017 155.582 27.6021C155.582 29.8025 154.799 31.6332 153.233 33.173C151.669 34.7129 149.785 35.4817 147.585 35.4817C146.323 35.4817 145.18 35.2179 144.155 34.6949C143.13 34.1695 142.224 33.3805 141.437 32.3299V35.0939H139.443H139.438ZM147.417 33.6149C148.526 33.6149 149.55 33.3512 150.487 32.8191C151.425 32.2893 152.171 31.5453 152.726 30.5871C153.279 29.6289 153.558 28.6144 153.558 27.5457C153.558 26.4771 153.279 25.458 152.72 24.4909C152.162 23.5237 151.409 22.7707 150.466 22.2318C149.522 21.693 148.516 21.4224 147.445 21.4224C146.374 21.4224 145.319 21.693 144.339 22.2318C143.358 22.7707 142.605 23.4966 142.08 24.4097C141.553 25.3228 141.29 26.3508 141.29 27.4916C141.29 29.2344 141.88 30.6886 143.061 31.8609C144.241 33.031 145.693 33.6172 147.417 33.6172" fill="white"/>
<path d="M29.1518 31.3129V48.5894H45.5417V2.15283L29.1518 31.3129Z" fill="#E92B8C"/>
<path d="M1.49063 48.5894H19.4419L29.1518 31.3129V2.15283L1.49063 48.5894Z" fill="#00AEEF"/>
<path d="M29.1518 2.15283V31.3129L45.5417 2.15283H29.1518Z" fill="#FFD33D"/>
</g>
<defs>
<clipPath id="clip0_15723_114825">
<rect width="160" height="50.675" fill="white" transform="translate(0.00128174 0.628906)"/>
</clipPath>
</defs>
</svg>
